<svg xmlns="http://www.w3.org/2000/svg" width="1200" height="630" viewBox="0 0 1200 630">
  <defs>
    <radialGradient id="g1" cx="85%" cy="15%" r="55%">
      <stop offset="0%" stop-color="#5eb8ff" stop-opacity="0.18"/>
      <stop offset="100%" stop-color="#020409" stop-opacity="0"/>
    </radialGradient>
    <radialGradient id="g2" cx="10%" cy="85%" r="50%">
      <stop offset="0%" stop-color="#00ffaa" stop-opacity="0.12"/>
      <stop offset="100%" stop-color="#020409" stop-opacity="0"/>
    </radialGradient>
    <radialGradient id="glow" cx="50%" cy="50%" r="50%">
      <stop offset="0%" stop-color="#00ffaa" stop-opacity="0.15"/>
      <stop offset="100%" stop-color="#020409" stop-opacity="0"/>
    </radialGradient>
  </defs>
  <!-- Background -->
  <rect width="1200" height="630" fill="#020409"/>
  <rect width="1200" height="630" fill="url(#g1)"/>
  <rect width="1200" height="630" fill="url(#g2)"/>
  <!-- Stars -->
  <circle cx="150" cy="60" r="1.2" fill="#fff" opacity="0.6"/>
  <circle cx="300" cy="30" r="1" fill="#5eb8ff" opacity="0.7"/>
  <circle cx="500" cy="80" r="1.4" fill="#fff" opacity="0.5"/>
  <circle cx="700" cy="50" r="1" fill="#fff" opacity="0.6"/>
  <circle cx="900" cy="40" r="1.2" fill="#5eb8ff" opacity="0.5"/>
  <circle cx="200" cy="580" r="1" fill="#fff" opacity="0.5"/>
  <circle cx="450" cy="600" r="1.2" fill="#00ffaa" opacity="0.5"/>
  <circle cx="600" cy="570" r="1" fill="#fff" opacity="0.6"/>
  <circle cx="50" cy="200" r="1" fill="#fff" opacity="0.4"/>
  <circle cx="60" cy="400" r="1.2" fill="#a78bfa" opacity="0.5"/>
  <!-- Orbital rings -->
  <circle cx="1040" cy="315" r="175" fill="none" stroke="#00ffaa" stroke-width="1.5" opacity="0.18"/>
  <circle cx="1040" cy="315" r="135" fill="none" stroke="#5eb8ff" stroke-width="1" opacity="0.16"/>
  <circle cx="1040" cy="315" r="95" fill="none" stroke="#a78bfa" stroke-width="1" opacity="0.14"/>
  <!-- Alien orb glow -->
  <circle cx="1040" cy="315" r="55" fill="url(#glow)"/>
  <!-- Alien head -->
  <ellipse cx="1040" cy="300" rx="52" ry="64" fill="#060c1a" stroke="#00ffaa" stroke-width="1.5" opacity="0.92"/>
  <!-- Eyes -->
  <ellipse cx="1020" cy="284" rx="13" ry="9" fill="#00ffaa" opacity="0.95"/>
  <ellipse cx="1062" cy="284" rx="13" ry="9" fill="#00ffaa" opacity="0.95"/>
  <ellipse cx="1020" cy="284" rx="6" ry="5" fill="#020409"/>
  <ellipse cx="1062" cy="284" rx="6" ry="5" fill="#020409"/>
  <circle cx="1021" cy="283" r="2" fill="#00ffaa" opacity="0.7"/>
  <circle cx="1063" cy="283" r="2" fill="#00ffaa" opacity="0.7"/>
  <!-- Mouth -->
  <path d="M1024 320 Q1040 331 1056 320" stroke="#00ffaa" stroke-width="1.5" fill="none" opacity="0.7"/>
  <!-- Orbital dot -->
  <circle cx="1040" cy="140" r="5" fill="#5eb8ff" opacity="0.7"/>
  <!-- Logo -->
  <text x="80" y="272" font-family="'Courier New',Courier,monospace" font-weight="900" font-size="106" letter-spacing="8" fill="#5eb8ff" opacity="0.95">ALIEN</text>
  <text x="80" y="384" font-family="'Courier New',Courier,monospace" font-weight="900" font-size="106" letter-spacing="8" fill="#00ffaa" opacity="0.95">SIGNAL</text>
  <!-- Divider line -->
  <line x1="80" y1="412" x2="720" y2="412" stroke="#3a5472" stroke-width="1" opacity="0.5"/>
  <!-- Tagline -->
  <text x="80" y="452" font-family="'Courier New',Courier,monospace" font-size="25" fill="#7a9ec0" letter-spacing="3">UFO  ·  UAP  ·  ALIEN ENCOUNTERS</text>
  <text x="80" y="490" font-family="'Courier New',Courier,monospace" font-size="21" fill="#7a9ec0" letter-spacing="2">Every signal, unfiltered — updated every 3 days</text>
  <!-- Signal dots -->
  <circle cx="80" cy="548" r="4" fill="#00ffaa" opacity="0.7"/>
  <circle cx="96" cy="548" r="4" fill="#00ffaa" opacity="0.45"/>
  <circle cx="112" cy="548" r="4" fill="#00ffaa" opacity="0.2"/>
  <!-- URL -->
  <text x="80" y="598" font-family="'Courier New',Courier,monospace" font-size="22" fill="#3a5472" letter-spacing="2">www.the-alien.net</text>
</svg>
